<?xml version="1.0" encoding="UTF-8" standalone="no"?>
<svg
   enable-background="new 0 0 64 64"
   height="64"
   viewBox="0 0 64 64"
   width="64"
   version="1.1"
   id="svg8"
   sodipodi:docname="logo-2.svg"
   inkscape:version="1.2.1 (9c6d41e, 2022-07-14)"
   xmlns:inkscape="http://www.inkscape.org/namespaces/inkscape"
   xmlns:sodipodi="http://sodipodi.sourceforge.net/DTD/sodipodi-0.dtd"
   xmlns="http://www.w3.org/2000/svg"
   xmlns:svg="http://www.w3.org/2000/svg">
  <defs
     id="defs12">
    <clipPath
       clipPathUnits="userSpaceOnUse"
       id="clipPath452">
      <path
         d="m 36,36 h 96.50064 v 96.50064 H 36 Z"
         id="path450" />
    </clipPath>
    <clipPath
       clipPathUnits="userSpaceOnUse"
       id="clipPath462">
      <path
         d="m 181.5,101.5 h 96.50064 v 96.50064 H 181.5 Z"
         id="path460" />
    </clipPath>
    <clipPath
       clipPathUnits="userSpaceOnUse"
       id="clipPath472">
      <path
         d="m 327.0003,75.50031 h 96.50064 v 96.50064 H 327.0003 Z"
         id="path470" />
    </clipPath>
    <clipPath
       clipPathUnits="userSpaceOnUse"
       id="clipPath482">
      <path
         d="m 473,173.5006 h 96.50064 v 96.50064 H 473 Z"
         id="path480" />
    </clipPath>
    <clipPath
       clipPathUnits="userSpaceOnUse"
       id="clipPath492">
      <path
         d="m 54.75032,112.5003 h 59 v 152 h -59 z"
         id="path490" />
    </clipPath>
    <clipPath
       clipPathUnits="userSpaceOnUse"
       id="clipPath502">
      <path
         d="m 200.2503,163.5003 h 59 v 152 h -59 z"
         id="path500" />
    </clipPath>
    <clipPath
       clipPathUnits="userSpaceOnUse"
       id="clipPath512">
      <path
         d="m 345.7506,145.7509 h 59 v 152 h -59 z"
         id="path510" />
    </clipPath>
    <clipPath
       clipPathUnits="userSpaceOnUse"
       id="clipPath522">
      <path
         d="m 491.2509,223.7509 h 59 v 152 h -59 z"
         id="path520" />
    </clipPath>
    <clipPath
       clipPathUnits="userSpaceOnUse"
       id="clipPath532">
      <path
         d="M 76.3716,99.52501 188.7268,144.7721 201.129,113.9756 88.77381,68.7285 Z"
         id="path530" />
    </clipPath>
    <clipPath
       clipPathUnits="userSpaceOnUse"
       id="clipPath538">
      <path
         d="M 0,0 H 605.5006 V 411.7509 H 0 Z"
         id="path536" />
    </clipPath>
    <clipPath
       clipPathUnits="userSpaceOnUse"
       id="clipPath552">
      <path
         d="m 240.2594,165.4881 95.477,-24.6656 -8.3043,-32.1446 -95.4769,24.6655 z"
         id="path550" />
    </clipPath>
    <clipPath
       clipPathUnits="userSpaceOnUse"
       id="clipPath558">
      <path
         d="M 0,0 H 605.5006 V 411.7509 H 0 Z"
         id="path556" />
    </clipPath>
    <clipPath
       clipPathUnits="userSpaceOnUse"
       id="clipPath572">
      <path
         d="m 402.1673,149.5659 77.3032,53.6693 18.934,-27.2717 -77.3032,-53.6693 z"
         id="path570" />
    </clipPath>
    <clipPath
       clipPathUnits="userSpaceOnUse"
       id="clipPath578">
      <path
         d="M 0,0 H 605.5006 V 411.7509 H 0 Z"
         id="path576" />
    </clipPath>
  </defs>
  <sodipodi:namedview
     id="namedview10"
     pagecolor="#ffffff"
     bordercolor="#000000"
     borderopacity="0.25"
     inkscape:showpageshadow="2"
     inkscape:pageopacity="0.0"
     inkscape:pagecheckerboard="0"
     inkscape:deskcolor="#d1d1d1"
     showgrid="false"
     inkscape:zoom="3.6874999"
     inkscape:cx="52.203391"
     inkscape:cy="36.745764"
     inkscape:window-width="1512"
     inkscape:window-height="917"
     inkscape:window-x="0"
     inkscape:window-y="65"
     inkscape:window-maximized="0"
     inkscape:current-layer="svg8" />
  <g
     inkscape:groupmode="layer"
     id="layer1"
     inkscape:label="Layer 1"
     style="fill:#000000" />
  <g
     inkscape:groupmode="layer"
     id="layer2"
     inkscape:label="Layer 2" />
  <g
     id="g446"
     transform="matrix(0.11243484,0,0,-0.11243484,-1.4082475,55.898619)"
     style="fill:#0067f4;stroke:#0067f4;fill-opacity:1;stroke-opacity:1">
    <g
       id="g448"
       clip-path="url(#clipPath452)"
       style="fill:#0067f4;stroke:#0067f4;fill-opacity:1;stroke-opacity:1">
      <path
         d="m 117.6611,117.6611 c 18.4523,-18.45226 18.4531,-48.36845 0,-66.82158 -18.45226,-18.45227 -48.36845,-18.45312 -66.82158,0 -18.45227,18.45228 -18.45312,48.36847 0,66.82158 18.45228,18.4523 48.36847,18.4531 66.82158,0 z"
         style="fill:#0067f4;fill-opacity:1;fill-rule:nonzero;stroke:#0067f4;stroke-opacity:1"
         id="path454" />
    </g>
  </g>
  <g
     id="g456"
     transform="matrix(0.11243484,0,0,-0.11243484,-1.4082475,55.898619)"
     style="fill:#0067f4;stroke:#0067f4;fill-opacity:1;stroke-opacity:1">
    <g
       id="g458"
       clip-path="url(#clipPath462)"
       style="fill:#0067f4;stroke:#0067f4;fill-opacity:1;stroke-opacity:1">
      <path
         d="m 263.1611,183.1611 c 18.4523,-18.4523 18.4531,-48.3685 0,-66.8216 -18.4523,-18.45225 -48.3685,-18.4531 -66.8216,0 -18.4522,18.4523 -18.4531,48.3685 0,66.8216 18.4523,18.4523 48.3685,18.4531 66.8216,0 z"
         style="fill:#0067f4;fill-opacity:1;fill-rule:nonzero;stroke:#0067f4;stroke-opacity:1"
         id="path464" />
    </g>
  </g>
  <g
     id="g466"
     transform="matrix(0.11243484,0,0,-0.11243484,-1.4082475,55.898619)"
     style="fill:#0067f4;stroke:#0067f4;fill-opacity:1;stroke-opacity:1">
    <g
       id="g468"
       clip-path="url(#clipPath472)"
       style="fill:#0067f4;stroke:#0067f4;fill-opacity:1;stroke-opacity:1">
      <path
         d="m 408.6614,157.1614 c 18.4523,-18.4523 18.4531,-48.3684 0,-66.82157 -18.4523,-18.45227 -48.3684,-18.45313 -66.8216,0 -18.4522,18.45227 -18.4531,48.36847 0,66.82157 18.4523,18.4523 48.3685,18.4531 66.8216,0 z"
         style="fill:#0067f4;fill-opacity:1;fill-rule:nonzero;stroke:#0067f4;stroke-opacity:1"
         id="path474" />
    </g>
  </g>
  <g
     id="g476"
     transform="matrix(0.11243484,0,0,-0.11243484,-1.4082475,55.898619)"
     style="fill:#0067f4;stroke:#0067f4;fill-opacity:1;stroke-opacity:1">
    <g
       id="g478"
       clip-path="url(#clipPath482)"
       style="fill:#0067f4;stroke:#0067f4;fill-opacity:1;stroke-opacity:1">
      <path
         d="m 554.6611,255.1617 c 18.4523,-18.4522 18.4531,-48.3684 0,-66.8216 -18.4523,-18.4522 -48.3685,-18.4531 -66.8216,0 -18.4522,18.4523 -18.4531,48.3685 0,66.8216 18.4523,18.4523 48.3685,18.4532 66.8216,0 z"
         style="fill:#0067f4;fill-opacity:1;fill-rule:nonzero;stroke:#0067f4;stroke-opacity:1"
         id="path484" />
    </g>
  </g>
  <g
     id="g486"
     transform="matrix(0.11243484,0,0,-0.11243484,-1.4082475,55.898619)"
     style="fill:#0067f4;stroke:#0067f4;fill-opacity:1;stroke-opacity:1">
    <g
       id="g488"
       clip-path="url(#clipPath492)"
       style="fill:#0067f4;stroke:#0067f4;fill-opacity:1;stroke-opacity:1">
      <path
         d="m 55.75032,113.5003 h 57 v 150 h -57 z"
         style="fill:#0067f4;fill-opacity:1;fill-rule:nonzero;stroke:#0067f4;stroke-opacity:1"
         id="path494" />
    </g>
  </g>
  <g
     id="g496"
     transform="matrix(0.11243484,0,0,-0.11243484,-1.4082475,55.898619)"
     style="fill:#0067f4;stroke:#0067f4;fill-opacity:1;stroke-opacity:1">
    <g
       id="g498"
       clip-path="url(#clipPath502)"
       style="fill:#0067f4;stroke:#0067f4;fill-opacity:1;stroke-opacity:1">
      <path
         d="m 201.2503,164.5003 h 57 v 150 h -57 z"
         style="fill:#0067f4;fill-opacity:1;fill-rule:nonzero;stroke:#0067f4;stroke-opacity:1"
         id="path504" />
    </g>
  </g>
  <g
     id="g506"
     transform="matrix(0.11243484,0,0,-0.11243484,-1.4082475,55.898619)"
     style="fill:#0067f4;stroke:#0067f4;fill-opacity:1;stroke-opacity:1">
    <g
       id="g508"
       clip-path="url(#clipPath512)"
       style="fill:#0067f4;stroke:#0067f4;fill-opacity:1;stroke-opacity:1">
      <path
         d="m 346.7506,146.7509 h 57 v 150 h -57 z"
         style="fill:#0067f4;fill-opacity:1;fill-rule:nonzero;stroke:#0067f4;stroke-opacity:1"
         id="path514" />
    </g>
  </g>
  <g
     id="g516"
     transform="matrix(0.11243484,0,0,-0.11243484,-1.4082475,55.898619)"
     style="fill:#0067f4;stroke:#0067f4;fill-opacity:1;stroke-opacity:1">
    <g
       id="g518"
       clip-path="url(#clipPath522)"
       style="fill:#0067f4;stroke:#0067f4;fill-opacity:1;stroke-opacity:1">
      <path
         d="m 492.2509,224.7509 h 57 v 150 h -57 z"
         style="fill:#0067f4;fill-opacity:1;fill-rule:nonzero;stroke:#0067f4;stroke-opacity:1"
         id="path524" />
    </g>
  </g>
  <g
     id="g526"
     transform="matrix(0.11243484,0,0,-0.11243484,-1.4082475,55.898619)"
     style="fill:#0067f4;stroke:#0067f4;fill-opacity:1;stroke-opacity:1">
    <g
       id="g528"
       clip-path="url(#clipPath532)"
       style="fill:#0067f4;stroke:#0067f4;fill-opacity:1;stroke-opacity:1">
      <g
         id="g534"
         clip-path="url(#clipPath538)"
         style="fill:#0067f4;stroke:#0067f4;fill-opacity:1;stroke-opacity:1">
        <g
           id="g540"
           transform="matrix(0.9276057,0.3735607,0.3735607,-0.9276057,83.50031,84.50032)"
           style="fill:#0067f4;stroke:#0067f4;fill-opacity:1;stroke-opacity:1">
          <path
             d="m 0,0 h 87.92389 4"
             style="fill:#0067f4;stroke:#0067f4;stroke-width:8;stroke-linecap:butt;stroke-linejoin:miter;stroke-miterlimit:4;stroke-dasharray:none;stroke-opacity:1;fill-opacity:1"
             id="path542" />
        </g>
        <path
           d="m 170.8866,102.8746 23.1137,26.1257 -34.7688,2.8156 z"
           style="fill:#0067f4;fill-opacity:1;fill-rule:nonzero;stroke:#0067f4;stroke-opacity:1"
           id="path544" />
      </g>
    </g>
  </g>
  <g
     id="g546"
     transform="matrix(0.11243484,0,0,-0.11243484,-1.4082475,55.898619)"
     style="fill:#0067f4;stroke:#0067f4;fill-opacity:1;stroke-opacity:1">
    <g
       id="g548"
       clip-path="url(#clipPath552)"
       style="fill:#0067f4;stroke:#0067f4;fill-opacity:1;stroke-opacity:1">
      <g
         id="g554"
         clip-path="url(#clipPath558)"
         style="fill:#0067f4;stroke:#0067f4;fill-opacity:1;stroke-opacity:1">
        <g
           id="g560"
           transform="matrix(0.9682127,-0.2501284,-0.2501284,-0.9682127,237.0755,149.1656)"
           style="fill:#0067f4;stroke:#0067f4;fill-opacity:1;stroke-opacity:1">
          <path
             d="m 0,0 h 65.41153 4"
             style="fill:#0067f4;stroke:#0067f4;stroke-width:8;stroke-linecap:butt;stroke-linejoin:miter;stroke-miterlimit:4;stroke-dasharray:none;stroke-opacity:1;fill-opacity:1"
             id="path562" />
        </g>
        <path
           d="m 296.5058,117.7002 34.1102,7.3001 -26.3062,22.9081 z"
           style="fill:#0067f4;fill-opacity:1;fill-rule:nonzero;stroke:#0067f4;stroke-opacity:1"
           id="path564" />
      </g>
    </g>
  </g>
  <g
     id="g566"
     transform="matrix(0.11243484,0,0,-0.11243484,-1.4082475,55.898619)"
     style="fill:#0067f4;stroke:#0067f4;fill-opacity:1;stroke-opacity:1">
    <g
       id="g568"
       clip-path="url(#clipPath572)"
       style="fill:#0067f4;stroke:#0067f4;fill-opacity:1;stroke-opacity:1">
      <g
         id="g574"
         clip-path="url(#clipPath578)"
         style="fill:#0067f4;stroke:#0067f4;fill-opacity:1;stroke-opacity:1">
        <g
           id="g580"
           transform="matrix(0.8214367,0.5702997,0.5702997,-0.8214367,412.4557,136.5003)"
           style="fill:#0067f4;stroke:#0067f4;fill-opacity:1;stroke-opacity:1">
          <path
             d="m 0,0 h 60.90729 4"
             style="fill:#0067f4;stroke:#0067f4;stroke-width:8;stroke-linecap:butt;stroke-linejoin:miter;stroke-miterlimit:4;stroke-dasharray:none;stroke-opacity:1;fill-opacity:1"
             id="path582" />
        </g>
        <path
           d="m 471.3839,158.4213 16.7322,30.6078 -34.5255,-4.979 z"
           style="fill:#0067f4;fill-opacity:1;fill-rule:nonzero;stroke:#0067f4;stroke-opacity:1"
           id="path584" />
      </g>
    </g>
  </g>
</svg>
